<?xml version="1.0" encoding="utf-8"?>
<!-- Generator: Adobe Illustrator 24.1.0, SVG Export Plug-In . SVG Version: 6.00 Build 0)  -->
<svg version="1.1" id="Capa_1" xmlns="http://www.w3.org/2000/svg" xmlns:xlink="http://www.w3.org/1999/xlink" x="0px" y="0px"
	 viewBox="0 0 48 54" style="enable-background:new 0 0 48 54;" xml:space="preserve">
<style type="text/css">
	.st0{fill:#4A84DC;}
</style>
<g>
	<g>
		<path class="st0" d="M28.4,34c2.7-2.5,4.3-4.5,5.4-6.5c1.3-2.5,2-5.2,2-8.5c0-0.3,0-0.6,0-0.9c0-0.6-0.5-1-1-1c0,0,0,0,0,0
			c-0.6,0-1,0.5-1,1.1c0,0.3,0,0.6,0,0.8c0,6.1-2.3,9.3-6.7,13.5c-4.9,4.5-5.2,10.2-5.3,11c-0.8,5.7-4.5,8.1-7.4,8.4
			c-3.5,0.3-6.5-1.8-7.7-5.4c-1.5-4.5-6.2-24.6-3.8-34.2c1.3-5.2,5.6-8.9,11.5-9.8c5.7-0.9,13.1,1.1,17,7.4c0.3,0.5,0.9,0.7,1.4,0.3
			c0.5-0.3,0.6-1,0.3-1.5c-1.9-3.2-4.9-5.6-8.5-7.1C21.3,0.1,17.5-0.3,14,0.2c-3.1,0.5-6,1.7-8.3,3.5c-2.5,2-4.2,4.7-5,7.8
			C-0.6,17,0.2,25.1,1.1,31c1.1,7.2,2.7,13.5,3.5,16c0.8,2.3,2.1,4.2,4,5.4c1.5,1,3.2,1.5,5,1.5c0.3,0,0.6,0,0.8,0
			c2.2-0.2,4.4-1.2,6-2.9c1.8-1.8,2.9-4.4,3.3-7.3c0,0,0-0.1,0-0.1C23.8,43.5,23.9,38.1,28.4,34L28.4,34z"/>
		<path class="st0" d="M22.7,27.8c-2.4,2.2-4,5-5.3,7.4c-1.2,2.2-2.7,3.3-4.2,3c-1.6-0.3-2.9-2.1-3.3-4.7c-0.1-0.6-0.6-1-1.2-0.9
			c-0.6,0.1-1,0.6-0.9,1.2c0.5,3.5,2.4,6,5,6.5c0.3,0.1,0.6,0.1,0.8,0.1c2.1,0,4.1-1.5,5.6-4.2c1.2-2.3,2.7-4.9,4.9-6.8
			c3.3-3.1,5.4-5.4,5.4-10.4c0-5.6-2.6-9.7-7.3-11.6c-1.9-0.8-4.2-1.1-6.3-1c-2.4,0.2-4.5,1-6.1,2.2c-1.5,1.2-2.5,2.7-2.9,4.6
			c-0.4,1.6-0.3,2.9,0.3,4.3c1.1,2.6,3.5,2.3,5.1,2.1c0.3,0,0.5-0.1,0.7-0.1c1-0.1,1.9,0.3,2.5,1.1c0.5,0.6,0.7,1.4,0.6,2.1
			c-0.1,0.8-0.5,1.4-1.1,1.9c-0.5,0.4-0.5,1-0.2,1.5c0.4,0.5,1,0.6,1.5,0.2c1.1-0.8,1.7-2,1.9-3.3c0.2-1.3-0.2-2.6-1-3.7
			c-1-1.4-2.7-2.1-4.4-2c-0.3,0-0.5,0.1-0.8,0.1c-1.8,0.2-2.5,0.2-3-0.9c-0.4-0.9-0.5-1.8-0.2-2.9c0.3-1.4,1.1-2.5,2.2-3.4
			c2.6-2,6.8-2.4,10.4-1c4.9,2,6,6.4,6,9.7C27.4,23,26,24.7,22.7,27.8L22.7,27.8z"/>
		<path class="st0" d="M47,34.4c0.6,0,1-0.5,1-1.1c0-0.6-0.5-1.1-1-1.1c-11.3,0-20.5,9.3-20.5,20.7c0,0.6,0.5,1.1,1,1.1s1-0.5,1-1.1
			C28.5,42.7,36.8,34.4,47,34.4L47,34.4z"/>
		<path class="st0" d="M47,37.9c-8.3,0-15,6.8-15,15.1c0,0.6,0.5,1.1,1,1.1s1-0.5,1-1.1c0-7.2,5.8-13,12.9-13c0.6,0,1-0.5,1-1.1
			C48,38.3,47.5,37.9,47,37.9L47,37.9z"/>
		<path class="st0" d="M47,43.4c-5.2,0-9.5,4.3-9.5,9.5c0,0.6,0.5,1.1,1,1.1s1-0.5,1-1.1c0-4.1,3.3-7.4,7.4-7.4c0.6,0,1-0.5,1-1.1
			C48,43.9,47.5,43.4,47,43.4L47,43.4z"/>
		<path class="st0" d="M33.3,14.2L33.3,14.2c0.2,0.2,0.5,0.3,0.7,0.3c0.3,0,0.5-0.1,0.7-0.3c0.4-0.4,0.4-1.1,0-1.5
			c-0.4-0.4-1.1-0.4-1.5,0C32.9,13.1,32.9,13.8,33.3,14.2z"/>
	</g>
</g>
</svg>
