<svg id="Calque_1" data-name="Calque 1" xmlns="http://www.w3.org/2000/svg" xmlns:xlink="http://www.w3.org/1999/xlink" viewBox="0 0 48 48"><defs><style>.cls-1{fill:#4a84dc;}.cls-2{clip-path:url(#clip-path);}.cls-3{fill:none;}</style><clipPath id="clip-path"><path class="cls-1" d="M39.57-256.63H27.76a1,1,0,0,0-.94.95.94.94,0,0,0,.94.94H39.57a.94.94,0,0,0,.94-.94A1,1,0,0,0,39.57-256.63Z"/></clipPath></defs><path class="cls-1" d="M39.57-256.63H27.76a1,1,0,0,0-.94.95.94.94,0,0,0,.94.94H39.57a.94.94,0,0,0,.94-.94A1,1,0,0,0,39.57-256.63Z"/><g class="cls-2"><rect class="cls-1" x="-500.02" y="-893.82" width="1521.81" height="1433.03"/></g><ellipse class="cls-3" cx="23.95" cy="24" rx="5.65" ry="5.64"/><path class="cls-3" d="M42.47,24a26.43,26.43,0,0,0-4.38-4.61,21.63,21.63,0,0,0-28.23,0A26.12,26.12,0,0,0,5.45,24a26.12,26.12,0,0,0,4.41,4.61A21.86,21.86,0,0,0,24,33.85a21.71,21.71,0,0,0,14.09-5.24A26.43,26.43,0,0,0,42.47,24ZM24,32.45A8.45,8.45,0,1,1,32.42,24,8.47,8.47,0,0,1,24,32.45Z"/><path class="cls-1" d="M45.38,24.73l.45-.73-.45-.73a27,27,0,0,0-5.41-6,24.84,24.84,0,0,0-16-5.95A25,25,0,0,0,8,17.29a27.52,27.52,0,0,0-5.46,6L2.07,24l.46.74a27.52,27.52,0,0,0,5.46,6,25,25,0,0,0,16,5.95,24.84,24.84,0,0,0,16-5.95A27,27,0,0,0,45.38,24.73ZM24,33.85A21.86,21.86,0,0,1,9.86,28.61,26.12,26.12,0,0,1,5.45,24a26.12,26.12,0,0,1,4.41-4.61,21.63,21.63,0,0,1,28.23,0A26.43,26.43,0,0,1,42.47,24a26.43,26.43,0,0,1-4.38,4.61A21.71,21.71,0,0,1,24,33.85Z"/><path class="cls-1" d="M24,15.55A8.45,8.45,0,1,0,32.42,24,8.47,8.47,0,0,0,24,15.55Zm0,14.09A5.64,5.64,0,1,1,29.6,24,5.65,5.65,0,0,1,24,29.64Z"/><path class="cls-1" d="M46.59,39.42a1.41,1.41,0,0,0-1.41,1.41v3.9a.47.47,0,0,1-.46.46h-4a1.41,1.41,0,1,0,0,2.81h5.42A1.87,1.87,0,0,0,48,46.13v-5.3A1.41,1.41,0,0,0,46.59,39.42Z"/><path class="cls-1" d="M46.13,0H40.81a1.41,1.41,0,0,0,0,2.81h3.91a.47.47,0,0,1,.46.46v4a1.41,1.41,0,0,0,2.82,0V1.87A1.87,1.87,0,0,0,46.13,0Z"/><path class="cls-1" d="M7.29,45.19h-4a.47.47,0,0,1-.46-.46v-3.9a1.41,1.41,0,0,0-2.82,0v5.3A1.87,1.87,0,0,0,1.87,48H7.29a1.41,1.41,0,1,0,0-2.81Z"/><path class="cls-1" d="M1.41,8.68a1.41,1.41,0,0,0,1.41-1.4v-4a.47.47,0,0,1,.46-.46H7.19A1.41,1.41,0,0,0,7.19,0H1.87A1.87,1.87,0,0,0,0,1.87V7.28A1.41,1.41,0,0,0,1.41,8.68Z"/></svg>