<?xml version="1.0" encoding="utf-8"?>
<!-- Generator: Adobe Illustrator 24.1.0, SVG Export Plug-In . SVG Version: 6.00 Build 0)  -->
<svg version="1.1" id="Layer_1" xmlns="http://www.w3.org/2000/svg" xmlns:xlink="http://www.w3.org/1999/xlink" x="0px" y="0px"
	 viewBox="0 0 48 44.2" style="enable-background:new 0 0 48 44.2;" xml:space="preserve">
<style type="text/css">
	.st0{fill:#4A84DC;}
</style>
<g id="XMLID_1527_">
	<g id="XMLID_1550_">
		<g id="XMLID_98_">
			<path id="XMLID_99_" class="st0" d="M1.9,17.4c0-2.7,0.6-5.2,1.9-7.4c0.3-0.4,0.1-1-0.4-1.3C3,8.5,2.4,8.6,2.2,9.1
				C0.8,11.6,0,14.5,0,17.4c0,3.5,0.9,7.2,2.4,10.2s1.9,6.5,1.1,9.6l-1.4,5.7c-0.1,0.5,0.2,1,0.7,1.1C2.9,44,3,44,3,44
				c0.4,0,0.8-0.3,0.9-0.7l1.4-5.7C6.2,34,5.7,30.1,4,26.7C2.7,24,1.9,20.6,1.9,17.4L1.9,17.4z"/>
			<path id="XMLID_111_" class="st0" d="M47.5,25.7L25.7,14.4L47.5,3c0.5-0.2,0.6-0.8,0.4-1.3c-0.2-0.5-0.8-0.6-1.3-0.4L32.9,8.5
				C29.7,3.2,24.1,0,18,0c-3.4,0-6.8,0.9-9.7,2.7C7.9,3,7.7,3.6,8,4s0.8,0.6,1.3,0.3c2.6-1.6,5.6-2.4,8.7-2.4
				c5.4,0,10.4,2.9,13.2,7.5L24.3,13c-0.2-1.5-0.9-2.9-2-3.9C21,7.7,19.2,7,17.2,6.9c-1.9,0-3.8,0.7-5.2,2S9.9,12.1,9.9,14l0,0v8.6
				c0,0.4,0.3,0.8,0.7,0.9l8,2.3c0.1,0,0.2,0,0.3,0c0.2,0,0.4-0.1,0.6-0.2c0.2-0.2,0.4-0.5,0.4-0.8v-2.3h1.2c1.5,0,2.8-1.2,2.8-2.8
				V19h1c0.3,0,0.6-0.1,0.8-0.4c0.2-0.2,0.2-0.5,0.1-0.8l-0.5-1.6l9.5,5l1.8,6h-3.8c-0.5,0-0.9,0.4-0.9,0.9v4.8c0,2.2-1.8,4-4,4H22
				c-0.5,0-0.8,0.3-0.9,0.8l-1,5.5c-0.1,0.5,0.3,1,0.8,1.1c0.1,0,0.1,0,0.2,0c0.4,0,0.8-0.3,0.9-0.8l0.8-4.7h5
				c3.2,0,5.8-2.6,5.8-5.8v-4h4.1c0.3,0,0.6-0.1,0.8-0.4c0.2-0.2,0.2-0.5,0.1-0.8l-1.7-5.4l9.7,5.1c0.1,0.1,0.3,0.1,0.4,0.1
				c0.3,0,0.7-0.2,0.8-0.5C48.1,26.5,48,26,47.5,25.7L47.5,25.7z M22.8,17.1c-0.5,0-0.9,0.4-0.9,0.9v1.8c0,0.5-0.4,0.9-0.9,0.9h-2.2
				c-0.5,0-0.9,0.4-0.9,0.9v2l-6.1-1.8V14c0.1-3,2.5-5.3,5.5-5.3c2.9,0,5.3,2.5,5.3,5.4c0,0.1,0,0.2,0,0.3l0.8,2.7H22.8L22.8,17.1z"
				/>
		</g>
	</g>
	<g id="XMLID_1529_">
		<g id="XMLID_1531_">
			<path id="XMLID_122_" class="st0" d="M5.5,7.1C5.3,7.1,5,7,4.8,6.8C4.7,6.6,4.6,6.4,4.6,6.2c0-0.2,0.1-0.5,0.3-0.7
				C5,5.3,5.3,5.2,5.5,5.2S6,5.3,6.2,5.5c0.2,0.2,0.3,0.4,0.3,0.7c0,0.2-0.1,0.5-0.3,0.7C6,7,5.8,7.1,5.5,7.1z"/>
		</g>
	</g>
</g>
</svg>
