<svg id="Calque_1" data-name="Calque 1" xmlns="http://www.w3.org/2000/svg" xmlns:xlink="http://www.w3.org/1999/xlink" viewBox="0 0 48 48"><defs><style>.cls-1{fill:#4a84dc;}.cls-2{clip-path:url(#clip-path);}.cls-3{fill:none;}</style><clipPath id="clip-path"><path class="cls-1" d="M-226.51-123.59h-11.81a1,1,0,0,0-.94,1,.94.94,0,0,0,.94.94h11.81a.94.94,0,0,0,.94-.94A1,1,0,0,0-226.51-123.59Z"/></clipPath></defs><path class="cls-1" d="M-226.51-123.59h-11.81a1,1,0,0,0-.94,1,.94.94,0,0,0,.94.94h11.81a.94.94,0,0,0,.94-.94A1,1,0,0,0-226.51-123.59Z"/><g class="cls-2"><rect class="cls-1" x="-766.1" y="-760.78" width="1521.81" height="1433.03"/></g><path class="cls-3" d="M7,30.05a1.39,1.39,0,0,0-1.88-.63l-1.86.93,7.18,14.36,1.85-.93A1.4,1.4,0,0,0,13,41.89Z"/><path class="cls-3" d="M25.5,11.34a5.8,5.8,0,0,0-5.72,5.72H31.12A5.68,5.68,0,0,0,25.5,11.34Z"/><path class="cls-3" d="M25.5,8.53a2.81,2.81,0,0,0,2.81-2.81A2.9,2.9,0,0,0,25.5,2.81a3,3,0,0,0-2.91,2.91A2.9,2.9,0,0,0,25.5,8.53Z"/><path class="cls-3" d="M42.75,26l-6.19,6.64a4.22,4.22,0,0,1-3.09,1.35H25.35a1.41,1.41,0,0,1,0-2.82h7.18a1.41,1.41,0,1,0,0-2.81H25.15c-1,0-2-.26-3.54-1.63a7,7,0,0,0-9.29,0L9.66,29l5.27,10.54h17.6a7.06,7.06,0,0,0,5.62-2.81l6.75-9A1.4,1.4,0,0,0,42.75,26Z"/><path class="cls-1" d="M46.5,23.68a4.22,4.22,0,0,0-5.81.35l-4.13,4.44a4.23,4.23,0,0,0-4-3H25.15c-.56,0-.74-.21-1.72-1a9.86,9.86,0,0,0-13,0L7.75,27a4.18,4.18,0,0,0-3.86,0L.78,28.46a1.4,1.4,0,0,0-.63,1.89L8.59,47.22a1.39,1.39,0,0,0,1.88.63l3.11-1.55a4.22,4.22,0,0,0,2.33-3.93H32.53a9.88,9.88,0,0,0,7.87-3.93l6.75-9A4.21,4.21,0,0,0,46.5,23.68ZM12.32,43.78l-1.85.93L3.29,30.35l1.86-.93A1.39,1.39,0,0,1,7,30.05L13,41.89A1.4,1.4,0,0,1,12.32,43.78Zm32.58-16-6.75,9a7.06,7.06,0,0,1-5.62,2.81H14.93L9.66,29l2.66-2.34a7,7,0,0,1,9.29,0c1.56,1.37,2.53,1.63,3.54,1.63h7.38a1.41,1.41,0,1,1,0,2.81H25.35a1.41,1.41,0,0,0,0,2.82h8.12a4.22,4.22,0,0,0,3.09-1.35L42.75,26a1.4,1.4,0,0,1,2.15,1.8Z"/><path class="cls-1" d="M18.37,19.87H32.53a1.41,1.41,0,0,0,1.41-1.4V17.06A8.56,8.56,0,0,0,29.57,9.6a5.62,5.62,0,0,0,1.55-3.88A5.7,5.7,0,0,0,25.5,0a5.8,5.8,0,0,0-5.72,5.72,5.51,5.51,0,0,0,1.61,3.89A8.58,8.58,0,0,0,17,17.06v1.41A1.4,1.4,0,0,0,18.37,19.87ZM25.5,2.81a2.9,2.9,0,0,1,2.81,2.91A2.81,2.81,0,0,1,25.5,8.53a2.9,2.9,0,0,1-2.91-2.81A3,3,0,0,1,25.5,2.81Zm0,8.53a5.68,5.68,0,0,1,5.62,5.72H19.78A5.8,5.8,0,0,1,25.5,11.34Z"/></svg>