<svg id="Calque_1" data-name="Calque 1" xmlns="http://www.w3.org/2000/svg" xmlns:xlink="http://www.w3.org/1999/xlink" viewBox="0 0 48 48"><defs><style>.cls-1{fill:#4a84dc;}.cls-2{clip-path:url(#clip-path);}.cls-3{fill:none;}</style><clipPath id="clip-path"><path class="cls-1" d="M-359.55-123.59h-11.81a1,1,0,0,0-.94,1,.94.94,0,0,0,.94.94h11.81a.94.94,0,0,0,.94-.94A1,1,0,0,0-359.55-123.59Z"/></clipPath></defs><path class="cls-1" d="M-359.55-123.59h-11.81a1,1,0,0,0-.94,1,.94.94,0,0,0,.94.94h11.81a.94.94,0,0,0,.94-.94A1,1,0,0,0-359.55-123.59Z"/><g class="cls-2"><rect class="cls-1" x="-899.14" y="-760.78" width="1521.81" height="1433.03"/></g><rect class="cls-3" x="10.13" y="13.13" width="4.13" height="4.13"/><rect class="cls-3" x="10.13" y="23.44" width="4.13" height="4.13"/><path class="cls-3" d="M13.88,6.75H24a1.06,1.06,0,0,0,1.06-1V1.88H12.83V5.7A1,1,0,0,0,13.88,6.75Z"/><path class="cls-3" d="M34.13,4.69V20.82L36,19V3.19a1.31,1.31,0,0,0-1.31-1.31H26.92V3.75h6.27A.94.94,0,0,1,34.13,4.69Z"/><rect class="cls-3" x="10.13" y="33.75" width="4.13" height="4.13"/><polygon class="cls-3" points="30.88 28.9 33.73 27.63 32.15 26.05 30.88 28.9"/><polygon class="cls-3" points="33.17 24.43 35.35 26.61 42.18 19.78 43.81 18.16 41.63 15.97 33.17 24.43"/><path class="cls-3" d="M34.13,29.51v13.8a.94.94,0,0,1-.94.94H22.69a.94.94,0,1,1,0-1.87h9.56v-12L29.41,31.6a.85.85,0,0,1-.38.09.94.94,0,0,1-.66-.28.92.92,0,0,1-.19-1L31,24.05a1.12,1.12,0,0,1,.19-.29l1.07-1.06V5.62H26.92V5.7A2.93,2.93,0,0,1,24,8.62H13.88A2.93,2.93,0,0,1,11,5.7V5.62H5.63V42.38h9.56a.94.94,0,1,1,0,1.87H4.69a.94.94,0,0,1-.94-.94V4.69a.94.94,0,0,1,.94-.94H11V1.88H3.19A1.3,1.3,0,0,0,1.88,3.19V44.81a1.3,1.3,0,0,0,1.31,1.31h31.5A1.31,1.31,0,0,0,36,44.81V28.61a.8.8,0,0,1-.27.18ZM19.81,14.56a.94.94,0,0,1,1.33,0L22.56,16l3.57-3.57a.94.94,0,1,1,1.33,1.32L23.22,18a.94.94,0,0,1-1.32,0l-2.09-2.09A.94.94,0,0,1,19.81,14.56Zm0,10.31a.94.94,0,0,1,1.33,0l1.42,1.42,3.57-3.57a.94.94,0,0,1,1.33,0,1,1,0,0,1,0,1.33l-4.24,4.23a.94.94,0,0,1-1.32,0l-2.09-2.09A.94.94,0,0,1,19.81,24.87ZM16.13,38.81a.94.94,0,0,1-.94.94h-6a.94.94,0,0,1-.94-.94v-6a.93.93,0,0,1,.94-.93h6a.93.93,0,0,1,.94.93Zm0-10.31a.94.94,0,0,1-.94.94h-6a.94.94,0,0,1-.94-.94v-6a.94.94,0,0,1,.94-.94h6a.94.94,0,0,1,.94.94Zm0-10.31a.93.93,0,0,1-.94.93h-6a.93.93,0,0,1-.94-.93v-6a.94.94,0,0,1,.94-.94h6a.94.94,0,0,1,.94.94ZM19.6,44a1,1,0,0,1-.66.27.94.94,0,0,1-.94-.94.92.92,0,0,1,.28-.66.94.94,0,0,1,.66-.27,1,1,0,0,1,.66.27.92.92,0,0,1,.28.66A1,1,0,0,1,19.6,44Zm1.26-5.39a.92.92,0,0,1,0-1.32l1.45-1.46-1.45-1.45A.94.94,0,0,1,22.18,33l1.45,1.46L25.09,33a.94.94,0,0,1,1.32,1.33L25,35.81l1.45,1.46a.92.92,0,0,1,0,1.32.92.92,0,0,1-1.32,0l-1.46-1.45-1.45,1.45a.92.92,0,0,1-1.32,0Z"/><path class="cls-3" d="M43.49,14.11l-.54.54,2.18,2.18.55-.54a1.55,1.55,0,0,0-2.19-2.18Z"/><path class="cls-1" d="M18.94,42.38a.94.94,0,0,0-.66.27.92.92,0,0,0-.28.66.94.94,0,0,0,.94.94A1,1,0,0,0,19.6,44a1,1,0,0,0,.28-.67.92.92,0,0,0-.28-.66A1,1,0,0,0,18.94,42.38Z"/><path class="cls-1" d="M47,12.78a3.42,3.42,0,0,0-4.83,0l-4.29,4.29V3.19A3.19,3.19,0,0,0,34.69,0H3.19A3.19,3.19,0,0,0,0,3.19V44.81A3.19,3.19,0,0,0,3.19,48h31.5a3.19,3.19,0,0,0,3.19-3.19V26.74L47,17.61A3.42,3.42,0,0,0,47,12.78ZM26.92,1.88h7.77A1.31,1.31,0,0,1,36,3.19V19l-1.87,1.87V4.69a.94.94,0,0,0-.94-.94H26.92Zm-14.09,0H25.05V5.7a1.06,1.06,0,0,1-1.06,1H13.88a1,1,0,0,1-1.05-1ZM36,44.81a1.31,1.31,0,0,1-1.31,1.31H3.19a1.3,1.3,0,0,1-1.31-1.31V3.19A1.3,1.3,0,0,1,3.19,1.88H11V3.75H4.69a.94.94,0,0,0-.94.94V43.31a.94.94,0,0,0,.94.94h10.5a.94.94,0,1,0,0-1.87H5.63V5.62H11V5.7a2.93,2.93,0,0,0,2.93,2.92H24A2.93,2.93,0,0,0,26.92,5.7V5.62h5.33V22.7l-1.07,1.06a1.12,1.12,0,0,0-.19.29l-2.81,6.32a.92.92,0,0,0,.19,1,.94.94,0,0,0,.66.28.85.85,0,0,0,.38-.09l2.84-1.26v12H22.69a.94.94,0,1,0,0,1.87h10.5a.94.94,0,0,0,.94-.94V29.51l1.6-.72a.8.8,0,0,0,.27-.18ZM33.73,27.63,30.88,28.9l1.27-2.85Zm8.45-7.85-6.83,6.83-2.18-2.18L41.63,16l2.18,2.18Zm3.5-3.49-.55.54L43,14.65l.54-.54a1.55,1.55,0,0,1,2.19,2.18Z"/><path class="cls-1" d="M15.19,11.25h-6a.94.94,0,0,0-.94.94v6a.93.93,0,0,0,.94.93h6a.93.93,0,0,0,.94-.93v-6A.94.94,0,0,0,15.19,11.25Zm-.94,6H10.13V13.12h4.12Z"/><path class="cls-1" d="M15.19,21.56h-6a.94.94,0,0,0-.94.94v6a.94.94,0,0,0,.94.94h6a.94.94,0,0,0,.94-.94v-6A.94.94,0,0,0,15.19,21.56Zm-.94,6H10.13V23.44h4.12Z"/><path class="cls-1" d="M15.19,31.88h-6a.93.93,0,0,0-.94.93v6a.94.94,0,0,0,.94.94h6a.94.94,0,0,0,.94-.94v-6A.93.93,0,0,0,15.19,31.88Zm-.94,6H10.13V33.75h4.12Z"/><path class="cls-1" d="M21.9,18a.94.94,0,0,0,1.32,0l4.24-4.24a.94.94,0,1,0-1.33-1.32L22.56,16l-1.42-1.42a.94.94,0,0,0-1.33,1.32Z"/><path class="cls-1" d="M21.9,28.28a.94.94,0,0,0,1.32,0l4.24-4.23a1,1,0,0,0,0-1.33.94.94,0,0,0-1.33,0l-3.57,3.57-1.42-1.42a.94.94,0,0,0-1.33,1.32Z"/><path class="cls-1" d="M23.63,37.14l1.46,1.45a.92.92,0,0,0,1.32,0,.92.92,0,0,0,0-1.32L25,35.81l1.45-1.45A.94.94,0,0,0,25.09,33l-1.46,1.46L22.18,33a.94.94,0,0,0-1.32,1.33l1.45,1.45-1.45,1.46a.92.92,0,0,0,0,1.32.92.92,0,0,0,1.32,0Z"/></svg>